<svg id="Layer_1" data-name="Layer 1" xmlns="http://www.w3.org/2000/svg" viewBox="0 0 201.43692 149.21856"><defs><style>.cls-1{fill:#fff;}</style></defs><title>lfdata-stacked-white</title><polygon class="cls-1" points="14.3 52.4 14.3 26.9 1.5 26.9 1.5 65.1 39.7 65.1 39.7 52.4 14.3 52.4"/><polygon class="cls-1" points="65.2 1.4 1.5 1.4 1.5 20.5 14.2 20.5 14.2 14.2 52.5 14.2 52.5 52.4 46.1 52.4 46.1 65.1 65.2 65.1 65.2 1.4"/><path class="cls-1" d="M82,1.4h19.6V48.8h28.2V65.1H82Z"/><path class="cls-1" d="M138.2,1.4h49.3V17.7H157.9v7.9h25.4V40.8H157.9V65.1H138.3V1.4Z"/><path class="cls-1" d="M49.4,115.25c0,10.6-2.8,18.6-8.3,24.1-5.6,5.4-13.7,8.2-24.5,8.2H1.5V84.25H18.6c10.1,0,17.8,2.6,23,7.9S49.4,105.15,49.4,115.25Zm-4.8.2c0-9-2.3-15.9-6.9-20.4-4.6-4.6-11.4-6.9-20.3-6.9H5.8v55.5H16.3C35.2,143.65,44.6,134.25,44.6,115.45Z"/><path class="cls-1" d="M94.2,125.25H68.5l-8.8,22.3H54.8l25.4-63.5H83l24.9,63.5h-5Zm-24.1-4H92.7l-8.6-22.8c-.7-1.8-1.6-4.3-2.6-7.5a54.43328,54.43328,0,0,1-2.6,7.5Z"/><path class="cls-1" d="M129.6,147.55h-4.5V88.45H104.6v-4.2h45.5v4.2H129.6Z"/><path class="cls-1" d="M186.1,125.25H160.4l-8.8,22.3h-4.9l25.4-63.5h2.8l24.9,63.5h-4.9Zm-24.1-4h22.6L176,98.45c-.7-1.8-1.6-4.3-2.6-7.5a54.432,54.432,0,0,1-2.6,7.5Z"/></svg>